<svg xmlns="http://www.w3.org/2000/svg" xmlns:xlink="http://www.w3.org/1999/xlink" width="1080" zoomAndPan="magnify" viewBox="0 0 810 809.999993" height="1080" preserveAspectRatio="xMidYMid meet" version="1.0"><path fill="#f7a81b" d="M 809.546875 392.433594 L 809.546875 391.308594 L 808.675781 390.800781 C 803.988281 388.125 799.152344 385.753906 794.167969 383.695312 C 789.179688 381.632812 784.085938 379.894531 778.878906 378.484375 C 773.667969 377.070312 768.394531 375.996094 763.050781 375.253906 C 757.703125 374.515625 752.335938 374.117188 746.9375 374.0625 C 746.503906 371.15625 743.742188 350.53125 743.308594 347.589844 C 748.511719 346.148438 753.601562 344.378906 758.578125 342.289062 C 763.554688 340.195312 768.378906 337.792969 773.046875 335.082031 C 777.714844 332.371094 782.195312 329.371094 786.476562 326.085938 C 790.761719 322.800781 794.820312 319.253906 798.652344 315.449219 L 799.414062 314.761719 L 799.195312 313.636719 C 797.882812 304.914062 795.632812 296.4375 792.441406 288.214844 L 792.003906 287.199219 L 790.953125 286.945312 C 785.742188 285.585938 780.464844 284.566406 775.121094 283.882812 C 769.78125 283.199219 764.417969 282.855469 759.03125 282.855469 C 753.648438 282.855469 748.285156 283.199219 742.941406 283.882812 C 737.601562 284.566406 732.324219 285.585938 727.113281 286.945312 C 726.09375 284.222656 718.25 265.15625 717.125 262.542969 C 721.730469 259.78125 726.148438 256.746094 730.378906 253.4375 C 734.609375 250.125 738.617188 246.570312 742.40625 242.765625 C 746.199219 238.960938 749.738281 234.9375 753.03125 230.691406 C 756.320312 226.449219 759.339844 222.019531 762.082031 217.402344 L 762.589844 216.570312 L 762.335938 215.589844 C 758.738281 207.585938 754.382812 200.019531 749.261719 192.890625 L 748.644531 192.019531 L 747.484375 192.019531 C 742.101562 192.054688 736.742188 192.425781 731.40625 193.132812 C 726.070312 193.84375 720.800781 194.878906 715.59375 196.25 C 710.390625 197.617188 705.289062 199.304688 700.296875 201.316406 C 695.300781 203.324219 690.453125 205.636719 685.75 208.253906 C 684.007812 205.855469 671.222656 189.261719 669.515625 186.9375 C 673.289062 183.097656 676.804688 179.03125 680.066406 174.746094 C 683.328125 170.460938 686.304688 165.988281 689 161.328125 C 691.695312 156.667969 694.085938 151.855469 696.171875 146.890625 C 698.261719 141.929688 700.027344 136.855469 701.472656 131.667969 L 701.765625 130.578125 L 701 129.742188 C 695.515625 122.804688 689.332031 116.558594 682.445312 111.003906 L 681.644531 110.386719 L 680.519531 110.386719 C 675.339844 111.835938 670.269531 113.605469 665.308594 115.6875 C 660.347656 117.773438 655.539062 120.160156 650.878906 122.851562 C 646.21875 125.539062 641.742188 128.507812 637.453125 131.757812 C 633.167969 135.007812 629.097656 138.511719 625.25 142.269531 C 622.851562 140.417969 606.292969 127.457031 603.898438 125.496094 C 606.523438 120.957031 608.859375 116.269531 610.898438 111.4375 C 612.9375 106.605469 614.664062 101.664062 616.082031 96.613281 C 617.5 91.566406 618.597656 86.445312 619.371094 81.257812 C 620.144531 76.070312 620.589844 70.855469 620.710938 65.613281 L 620.710938 62.925781 L 619.875 62.273438 C 612.800781 56.941406 605.1875 52.546875 597.03125 49.089844 L 596.089844 48.726562 L 595.179688 49.199219 C 590.542969 51.898438 586.089844 54.878906 581.828125 58.140625 C 577.566406 61.398438 573.527344 64.917969 569.710938 68.691406 C 565.894531 72.464844 562.332031 76.464844 559.023438 80.6875 C 555.710938 84.914062 552.683594 89.328125 549.933594 93.9375 C 547.101562 92.847656 526.945312 84.386719 524.292969 83.042969 C 527.0625 72.460938 528.5 61.699219 528.617188 50.761719 C 528.722656 40.066406 527.285156 29.582031 524.292969 19.3125 L 524.039062 18.296875 L 522.988281 17.898438 C 514.863281 14.636719 506.472656 12.335938 497.820312 10.996094 L 496.621094 10.816406 L 495.933594 11.542969 C 492.15625 15.378906 488.632812 19.441406 485.367188 23.726562 C 482.105469 28.011719 479.125 32.484375 476.425781 37.144531 C 473.726562 41.804688 471.332031 46.617188 469.242188 51.582031 C 467.15625 56.546875 465.386719 61.625 463.941406 66.8125 C 460.960938 66.304688 440.117188 63.726562 436.957031 63.398438 C 436.925781 58.003906 436.546875 52.636719 435.828125 47.292969 C 435.105469 41.949219 434.046875 36.675781 432.648438 31.464844 C 431.253906 26.257812 429.527344 21.160156 427.476562 16.171875 C 425.429688 11.1875 423.070312 6.351562 420.398438 1.664062 L 419.890625 1.121094 L 418.800781 1.121094 C 410.035156 0.136719 401.273438 0.136719 392.507812 1.121094 L 391.347656 1.121094 L 390.839844 2.101562 C 388.1875 6.773438 385.84375 11.597656 383.808594 16.566406 C 381.769531 21.539062 380.054688 26.617188 378.660156 31.804688 C 377.265625 36.996094 376.207031 42.25 375.480469 47.574219 C 374.753906 52.894531 374.363281 58.242188 374.316406 63.617188 C 371.300781 64.015625 350.128906 66.59375 347.078125 67.246094 C 345.640625 62.046875 343.878906 56.960938 341.792969 51.984375 C 339.707031 47.011719 337.3125 42.1875 334.617188 37.515625 C 331.917969 32.847656 328.933594 28.363281 325.667969 24.074219 C 322.398438 19.78125 318.871094 15.710938 315.085938 11.867188 L 314.289062 11.070312 L 313.125 11.070312 C 304.472656 12.429688 296.058594 14.679688 287.886719 17.824219 L 286.871094 18.261719 L 286.46875 19.277344 C 283.65625 29.695312 282.265625 40.296875 282.292969 51.085938 C 282.492188 61.90625 283.933594 72.558594 286.617188 83.042969 C 283.964844 84.167969 263.628906 92.921875 260.90625 93.9375 C 258.160156 89.316406 255.136719 84.882812 251.839844 80.636719 C 248.542969 76.394531 244.992188 72.371094 241.191406 68.566406 C 237.394531 64.765625 233.371094 61.214844 229.128906 57.910156 C 224.886719 54.609375 220.457031 51.585938 215.839844 48.835938 L 214.894531 48.253906 L 213.769531 48.65625 C 205.773438 52.304688 198.21875 56.710938 191.109375 61.871094 L 190.164062 62.453125 L 190.164062 65.359375 C 190.265625 70.628906 190.695312 75.871094 191.453125 81.085938 C 192.207031 86.300781 193.285156 91.449219 194.679688 96.53125 C 196.074219 101.613281 197.78125 106.589844 199.796875 111.460938 C 201.8125 116.332031 204.121094 121.058594 206.722656 125.640625 C 204.433594 127.527344 189.148438 139.511719 186.824219 141.363281 C 182.976562 137.585938 178.910156 134.066406 174.621094 130.800781 C 170.332031 127.539062 165.855469 124.554688 161.195312 121.855469 C 156.53125 119.152344 151.714844 116.753906 146.75 114.660156 C 141.78125 112.566406 136.703125 110.789062 131.515625 109.335938 L 130.5 109.117188 L 129.734375 109.84375 C 122.753906 115.269531 116.496094 121.429688 110.960938 128.328125 L 110.273438 129.199219 L 110.527344 130.25 C 111.972656 135.441406 113.734375 140.519531 115.816406 145.484375 C 117.898438 150.453125 120.285156 155.273438 122.96875 159.941406 C 125.65625 164.613281 128.621094 169.09375 131.867188 173.394531 C 135.113281 177.691406 138.617188 181.769531 142.375 185.628906 C 140.703125 187.953125 127.375 205.3125 125.523438 207.707031 C 120.839844 205.03125 116.007812 202.660156 111.019531 200.601562 C 106.035156 198.542969 100.9375 196.808594 95.726562 195.402344 C 90.519531 193.996094 85.242188 192.929688 79.898438 192.199219 C 74.554688 191.46875 69.183594 191.082031 63.789062 191.039062 L 62.773438 191.039062 L 62.117188 191.949219 C 56.914062 199.070312 52.519531 206.65625 48.9375 214.714844 L 48.5 215.660156 L 49.046875 216.675781 C 51.789062 221.316406 54.808594 225.765625 58.105469 230.027344 C 61.402344 234.289062 64.953125 238.328125 68.757812 242.148438 C 72.558594 245.964844 76.585938 249.53125 80.832031 252.847656 C 85.082031 256.160156 89.519531 259.199219 94.148438 261.960938 C 93.132812 264.648438 85.394531 283.457031 84.234375 286.183594 C 79.015625 284.808594 73.730469 283.777344 68.378906 283.085938 C 63.027344 282.394531 57.65625 282.050781 52.257812 282.050781 C 46.863281 282.050781 41.488281 282.394531 36.136719 283.085938 C 30.789062 283.777344 25.503906 284.808594 20.285156 286.183594 L 19.230469 286.4375 L 18.867188 287.378906 C 15.609375 295.59375 13.3125 304.066406 11.96875 312.800781 L 11.96875 313.890625 L 12.730469 314.761719 C 16.566406 318.53125 20.625 322.042969 24.914062 325.289062 C 29.199219 328.539062 33.675781 331.5 38.339844 334.175781 C 43.007812 336.851562 47.824219 339.214844 52.796875 341.273438 C 57.765625 343.328125 62.847656 345.058594 68.039062 346.460938 C 67.601562 349.441406 64.878906 370.285156 64.40625 373.117188 C 59.015625 373.167969 53.648438 373.554688 48.308594 374.285156 C 42.96875 375.015625 37.695312 376.078125 32.488281 377.472656 C 27.28125 378.871094 22.183594 380.589844 17.191406 382.632812 C 12.203125 384.671875 7.363281 387.019531 2.671875 389.675781 L 1.691406 390.21875 L 1.691406 391.308594 C 0.722656 400.085938 0.722656 408.863281 1.691406 417.636719 L 1.691406 418.691406 L 2.671875 419.199219 C 7.359375 421.863281 12.195312 424.21875 17.183594 426.265625 C 22.171875 428.3125 27.269531 430.03125 32.476562 431.425781 C 37.683594 432.820312 42.960938 433.875 48.304688 434.59375 C 53.648438 435.3125 59.015625 435.691406 64.40625 435.722656 C 64.84375 438.734375 67.785156 460.125 68.039062 463.066406 C 62.859375 464.542969 57.789062 466.339844 52.832031 468.449219 C 47.878906 470.5625 43.074219 472.976562 38.417969 475.6875 C 33.765625 478.402344 29.296875 481.394531 25.019531 484.664062 C 20.738281 487.933594 16.679688 491.460938 12.839844 495.238281 L 12.078125 496.148438 L 12.078125 497.128906 C 13.480469 505.839844 15.769531 514.3125 18.941406 522.546875 L 19.375 523.492188 L 20.355469 523.855469 C 25.582031 525.207031 30.871094 526.222656 36.222656 526.90625 C 41.578125 527.589844 46.953125 527.929688 52.351562 527.929688 C 57.746094 527.929688 63.121094 527.589844 68.476562 526.90625 C 73.828125 526.222656 79.117188 525.207031 84.34375 523.855469 C 85.433594 526.542969 93.710938 545.644531 94.875 548.222656 C 90.25 550.953125 85.8125 553.960938 81.5625 557.25 C 77.316406 560.539062 73.289062 564.082031 69.484375 567.875 C 65.683594 571.667969 62.132812 575.683594 58.832031 579.925781 C 55.535156 584.164062 52.515625 588.59375 49.769531 593.214844 L 49.300781 594.195312 L 49.664062 595.210938 C 53.269531 603.253906 57.675781 610.832031 62.882812 617.941406 L 63.535156 618.816406 L 64.550781 618.816406 C 69.9375 618.785156 75.300781 618.414062 80.640625 617.703125 C 85.980469 616.992188 91.25 615.949219 96.457031 614.570312 C 101.664062 613.191406 106.765625 611.492188 111.753906 609.46875 C 116.746094 607.441406 121.589844 605.113281 126.285156 602.472656 C 128.101562 604.726562 141.140625 621.71875 142.84375 624.042969 C 139.0625 627.871094 135.539062 631.921875 132.273438 636.199219 C 129.011719 640.472656 126.03125 644.941406 123.332031 649.597656 C 120.636719 654.253906 118.25 659.0625 116.167969 664.023438 C 114.082031 668.984375 112.324219 674.054688 110.890625 679.242188 L 110.632812 680.257812 L 111.289062 681.128906 C 116.859375 687.949219 123.03125 694.171875 129.808594 699.792969 L 130.679688 700.554688 L 131.734375 700.191406 C 136.921875 698.765625 142.003906 697.019531 146.96875 694.949219 C 151.9375 692.878906 156.757812 690.503906 161.425781 687.824219 C 166.09375 685.144531 170.574219 682.179688 174.863281 678.933594 C 179.15625 675.6875 183.226562 672.179688 187.078125 668.417969 C 189.472656 670.308594 206.359375 683.269531 208.867188 685.125 C 203.699219 694.410156 199.726562 704.183594 196.941406 714.441406 C 194.160156 724.699219 192.652344 735.140625 192.414062 745.765625 L 192.414062 747.980469 L 193.394531 748.746094 C 200.507812 753.867188 208.046875 758.246094 216.019531 761.890625 L 217 762.253906 L 218.054688 761.746094 C 222.703125 759 227.160156 755.976562 231.429688 752.667969 C 235.695312 749.359375 239.738281 745.796875 243.554688 741.976562 C 247.371094 738.160156 250.929688 734.113281 254.234375 729.84375 C 257.539062 725.574219 260.5625 721.113281 263.300781 716.460938 L 287.195312 726.15625 C 284.464844 736.632812 283.058594 747.285156 282.984375 758.113281 C 282.917969 768.921875 284.359375 779.523438 287.304688 789.925781 L 287.523438 790.976562 L 288.613281 791.375 C 296.835938 794.621094 305.308594 796.960938 314.03125 798.386719 L 315.195312 798.386719 L 315.957031 797.515625 C 319.734375 793.695312 323.25 789.652344 326.5 785.378906 C 329.753906 781.105469 332.714844 776.636719 335.390625 771.980469 C 338.0625 767.320312 340.421875 762.511719 342.46875 757.546875 C 344.515625 752.582031 346.234375 747.503906 347.625 742.316406 C 350.675781 742.824219 372.027344 745.949219 375.003906 746.167969 C 375.058594 751.539062 375.457031 756.886719 376.191406 762.210938 C 376.929688 767.53125 378 772.785156 379.40625 777.972656 C 380.8125 783.160156 382.539062 788.234375 384.59375 793.199219 C 386.648438 798.164062 389.007812 802.980469 391.671875 807.644531 L 392.109375 808.589844 L 393.308594 808.589844 C 402.058594 809.574219 410.8125 809.574219 419.5625 808.589844 L 420.617188 808.589844 L 421.160156 807.644531 C 423.808594 802.949219 426.15625 798.105469 428.203125 793.117188 C 430.246094 788.128906 431.972656 783.03125 433.382812 777.824219 C 434.789062 772.621094 435.871094 767.347656 436.621094 762.007812 C 437.371094 756.667969 437.785156 751.304688 437.867188 745.910156 C 440.84375 745.511719 460.816406 742.714844 463.792969 742.28125 C 465.207031 747.484375 466.949219 752.574219 469.019531 757.550781 C 471.089844 762.527344 473.472656 767.351562 476.167969 772.019531 C 478.859375 776.691406 481.84375 781.167969 485.113281 785.453125 C 488.386719 789.738281 491.917969 793.792969 495.714844 797.621094 L 496.511719 798.347656 L 497.492188 798.347656 C 506.191406 796.917969 514.664062 794.652344 522.914062 791.558594 L 523.859375 791.085938 L 524.183594 790.105469 C 527.042969 779.695312 528.421875 769.089844 528.324219 758.296875 C 528.246094 747.367188 526.867188 736.605469 524.183594 726.011719 C 526.945312 724.960938 546.300781 716.570312 549.023438 715.371094 C 551.777344 719.996094 554.800781 724.433594 558.105469 728.683594 C 561.40625 732.933594 564.957031 736.960938 568.761719 740.769531 C 572.5625 744.578125 576.585938 748.136719 580.828125 751.445312 C 585.074219 754.753906 589.507812 757.789062 594.128906 760.546875 L 595 760.980469 L 596.050781 760.582031 C 604.179688 757.050781 611.792969 752.632812 618.894531 747.328125 L 619.730469 746.820312 L 619.730469 743.878906 C 619.445312 733.363281 617.925781 723.03125 615.160156 712.882812 C 612.398438 702.734375 608.472656 693.058594 603.386719 683.851562 C 605.710938 682.035156 621.542969 669.617188 623.976562 667.765625 C 627.851562 671.515625 631.945312 675.015625 636.25 678.261719 C 640.558594 681.503906 645.050781 684.472656 649.722656 687.164062 C 654.398438 689.855469 659.21875 692.246094 664.191406 694.34375 C 669.160156 696.4375 674.238281 698.21875 679.429688 699.683594 L 680.445312 699.976562 L 681.246094 699.25 C 688.085938 693.6875 694.320312 687.515625 699.949219 680.730469 L 700.675781 679.785156 L 700.3125 678.839844 C 698.890625 673.652344 697.148438 668.570312 695.082031 663.601562 C 693.019531 658.628906 690.648438 653.808594 687.976562 649.140625 C 685.300781 644.46875 682.34375 639.984375 679.105469 635.6875 C 675.863281 631.390625 672.363281 627.316406 668.609375 623.460938 C 670.386719 621.101562 683.132812 604.144531 685.023438 601.675781 C 689.714844 604.320312 694.554688 606.65625 699.546875 608.6875 C 704.535156 610.714844 709.636719 612.414062 714.84375 613.789062 C 720.050781 615.164062 725.324219 616.203125 730.667969 616.90625 C 736.007812 617.605469 741.371094 617.964844 746.757812 617.980469 L 747.847656 617.980469 L 748.5 617.179688 C 753.863281 610.113281 758.257812 602.488281 761.683594 594.304688 L 762.117188 593.394531 L 761.609375 592.414062 C 756.121094 583.15625 749.597656 574.695312 742.042969 567.03125 C 734.484375 559.363281 726.121094 552.71875 716.941406 547.09375 C 718.03125 544.40625 725.695312 525.707031 726.820312 523.019531 C 732.019531 524.40625 737.285156 525.453125 742.617188 526.152344 C 747.949219 526.851562 753.308594 527.203125 758.6875 527.203125 C 764.066406 527.203125 769.421875 526.851562 774.757812 526.152344 C 780.089844 525.453125 785.355469 524.40625 790.554688 523.019531 L 791.496094 522.691406 L 791.933594 521.75 C 795.144531 513.519531 797.457031 505.046875 798.867188 496.328125 L 798.867188 495.238281 L 798.070312 494.402344 C 794.257812 490.628906 790.222656 487.113281 785.964844 483.851562 C 781.703125 480.59375 777.25 477.617188 772.609375 474.929688 C 767.96875 472.238281 763.175781 469.855469 758.226562 467.78125 C 753.28125 465.703125 748.222656 463.949219 743.054688 462.519531 C 743.523438 459.617188 746.359375 439.570312 746.683594 436.628906 C 752.078125 436.582031 757.445312 436.191406 762.789062 435.460938 C 768.132812 434.730469 773.40625 433.660156 778.613281 432.257812 C 783.820312 430.855469 788.917969 429.128906 793.90625 427.078125 C 798.894531 425.023438 803.730469 422.664062 808.417969 419.996094 L 809.292969 419.417969 L 809.292969 418.289062 C 809.816406 413.925781 810.058594 409.542969 810.015625 405.144531 C 810.128906 400.898438 809.972656 396.664062 809.546875 392.4375 Z M 405.691406 705.820312 C 400.726562 705.824219 395.769531 705.703125 390.8125 705.460938 C 385.855469 705.21875 380.90625 704.855469 375.96875 704.367188 C 371.027344 703.882812 366.105469 703.277344 361.195312 702.550781 C 356.285156 701.824219 351.398438 700.976562 346.53125 700.007812 C 341.660156 699.042969 336.820312 697.957031 332.007812 696.75 C 327.191406 695.546875 322.410156 694.226562 317.660156 692.785156 C 312.910156 691.34375 308.199219 689.789062 303.527344 688.121094 C 298.855469 686.449219 294.226562 684.664062 289.640625 682.765625 C 285.054688 680.867188 280.519531 678.859375 276.03125 676.738281 C 271.542969 674.617188 267.113281 672.386719 262.734375 670.050781 C 258.359375 667.710938 254.039062 665.265625 249.785156 662.714844 C 245.527344 660.164062 241.335938 657.511719 237.207031 654.753906 C 233.082031 652 229.023438 649.144531 225.035156 646.1875 C 221.050781 643.234375 217.136719 640.179688 213.300781 637.035156 C 209.464844 633.886719 205.707031 630.648438 202.027344 627.316406 C 198.351562 623.984375 194.757812 620.5625 191.246094 617.054688 C 187.738281 613.546875 184.316406 609.953125 180.980469 606.277344 C 177.648438 602.601562 174.40625 598.84375 171.257812 595.007812 C 168.109375 591.171875 165.054688 587.261719 162.097656 583.277344 C 159.140625 579.292969 156.285156 575.234375 153.527344 571.109375 C 150.769531 566.984375 148.113281 562.792969 145.5625 558.539062 C 143.007812 554.28125 140.5625 549.964844 138.222656 545.589844 C 135.882812 541.210938 133.652344 536.78125 131.527344 532.296875 C 129.40625 527.808594 127.394531 523.273438 125.492188 518.691406 C 123.59375 514.105469 121.808594 509.476562 120.136719 504.804688 C 118.460938 500.132812 116.90625 495.421875 115.464844 490.671875 C 114.023438 485.925781 112.699219 481.144531 111.492188 476.328125 C 110.285156 471.515625 109.195312 466.675781 108.226562 461.808594 C 107.257812 456.941406 106.410156 452.054688 105.679688 447.144531 C 104.953125 442.234375 104.34375 437.3125 103.855469 432.375 C 103.371094 427.433594 103.003906 422.488281 102.757812 417.53125 C 102.515625 412.574219 102.390625 407.613281 102.390625 402.652344 C 102.390625 397.6875 102.511719 392.730469 102.753906 387.773438 C 102.996094 382.816406 103.359375 377.867188 103.847656 372.929688 C 104.332031 367.992188 104.9375 363.066406 105.667969 358.15625 C 106.394531 353.25 107.242188 348.359375 108.207031 343.492188 C 109.175781 338.625 110.261719 333.785156 111.46875 328.96875 C 112.671875 324.15625 113.996094 319.375 115.4375 314.625 C 116.875 309.875 118.429688 305.164062 120.101562 300.492188 C 121.773438 295.820312 123.558594 291.191406 125.457031 286.605469 C 127.355469 282.019531 129.367188 277.484375 131.488281 273 C 133.609375 268.511719 135.839844 264.078125 138.175781 259.703125 C 140.515625 255.324219 142.960938 251.007812 145.511719 246.753906 C 148.0625 242.496094 150.714844 238.304688 153.472656 234.175781 C 156.230469 230.050781 159.085938 225.992188 162.042969 222.007812 C 164.996094 218.019531 168.050781 214.109375 171.195312 210.273438 C 174.34375 206.4375 177.585938 202.679688 180.917969 199 C 184.25 195.324219 187.671875 191.730469 191.179688 188.222656 C 194.6875 184.710938 198.28125 181.289062 201.957031 177.957031 C 205.632812 174.625 209.390625 171.382812 213.226562 168.234375 C 217.0625 165.085938 220.972656 162.03125 224.957031 159.074219 C 228.945312 156.121094 233 153.261719 237.125 150.503906 C 241.253906 147.746094 245.445312 145.09375 249.699219 142.539062 C 253.957031 139.988281 258.273438 137.542969 262.648438 135.203125 C 267.027344 132.863281 271.457031 130.632812 275.945312 128.511719 C 280.429688 126.386719 284.964844 124.378906 289.550781 122.476562 C 294.136719 120.578125 298.765625 118.792969 303.4375 117.121094 C 308.109375 115.449219 312.820312 113.890625 317.570312 112.449219 C 322.316406 111.007812 327.097656 109.683594 331.914062 108.480469 C 336.726562 107.273438 341.566406 106.183594 346.433594 105.214844 C 351.300781 104.246094 356.191406 103.398438 361.101562 102.671875 C 366.007812 101.941406 370.933594 101.335938 375.871094 100.847656 C 380.808594 100.359375 385.757812 99.996094 390.714844 99.75 C 395.671875 99.507812 400.632812 99.386719 405.59375 99.386719 C 410.558594 99.382812 415.515625 99.503906 420.472656 99.75 C 425.429688 99.992188 430.378906 100.355469 435.316406 100.84375 C 440.257812 101.328125 445.179688 101.9375 450.089844 102.664062 C 455 103.390625 459.886719 104.238281 464.753906 105.207031 C 469.621094 106.175781 474.460938 107.261719 479.277344 108.46875 C 484.089844 109.671875 488.871094 110.996094 493.621094 112.4375 C 498.371094 113.875 503.082031 115.433594 507.753906 117.101562 C 512.425781 118.773438 517.054688 120.558594 521.640625 122.457031 C 526.226562 124.359375 530.761719 126.367188 535.25 128.488281 C 539.734375 130.609375 544.167969 132.839844 548.542969 135.179688 C 552.921875 137.519531 557.238281 139.964844 561.496094 142.515625 C 565.75 145.066406 569.941406 147.722656 574.070312 150.476562 C 578.195312 153.234375 582.253906 156.089844 586.238281 159.046875 C 590.226562 162.003906 594.136719 165.054688 597.972656 168.203125 C 601.808594 171.351562 605.566406 174.59375 609.242188 177.925781 C 612.921875 181.257812 616.515625 184.679688 620.023438 188.1875 C 623.53125 191.695312 626.953125 195.289062 630.285156 198.964844 C 633.621094 202.644531 636.859375 206.398438 640.007812 210.234375 C 643.15625 214.070312 646.210938 217.980469 649.167969 221.96875 C 652.121094 225.953125 654.980469 230.011719 657.738281 234.136719 C 660.496094 238.261719 663.148438 242.453125 665.699219 246.710938 C 668.25 250.96875 670.699219 255.285156 673.035156 259.660156 C 675.375 264.035156 677.605469 268.46875 679.730469 272.953125 C 681.851562 277.441406 683.863281 281.976562 685.761719 286.5625 C 687.660156 291.144531 689.445312 295.773438 691.117188 300.445312 C 692.789062 305.121094 694.347656 309.832031 695.785156 314.578125 C 697.226562 319.328125 698.550781 324.109375 699.757812 328.921875 C 700.960938 333.738281 702.050781 338.578125 703.019531 343.445312 C 703.984375 348.3125 704.835938 353.199219 705.5625 358.109375 C 706.289062 363.019531 706.898438 367.941406 707.382812 372.882812 C 707.871094 377.820312 708.238281 382.769531 708.480469 387.722656 C 708.722656 392.679688 708.84375 397.640625 708.84375 402.601562 C 708.839844 407.5625 708.710938 412.519531 708.464844 417.472656 C 708.214844 422.429688 707.847656 427.375 707.355469 432.308594 C 706.863281 437.246094 706.253906 442.164062 705.519531 447.070312 C 704.789062 451.976562 703.9375 456.863281 702.964844 461.726562 C 701.996094 466.589844 700.90625 471.429688 699.695312 476.238281 C 698.488281 481.050781 697.160156 485.828125 695.71875 490.574219 C 694.277344 495.320312 692.71875 500.027344 691.042969 504.695312 C 689.371094 509.367188 687.582031 513.992188 685.683594 518.574219 C 683.78125 523.15625 681.773438 527.6875 679.648438 532.167969 C 677.527344 536.652344 675.292969 541.082031 672.953125 545.457031 C 670.617188 549.828125 668.171875 554.140625 665.617188 558.394531 C 663.066406 562.648438 660.414062 566.839844 657.65625 570.960938 C 654.902344 575.085938 652.042969 579.140625 649.089844 583.125 C 646.132812 587.109375 643.082031 591.015625 639.9375 594.851562 C 636.789062 598.683594 633.550781 602.441406 630.21875 606.117188 C 626.886719 609.789062 623.46875 613.382812 619.960938 616.890625 C 616.457031 620.398438 612.863281 623.816406 609.191406 627.148438 C 605.515625 630.480469 601.761719 633.722656 597.925781 636.867188 C 594.09375 640.015625 590.1875 643.070312 586.203125 646.023438 C 582.21875 648.980469 578.167969 651.835938 574.042969 654.59375 C 569.917969 657.351562 565.730469 660.007812 561.476562 662.558594 C 557.226562 665.113281 552.910156 667.558594 548.539062 669.898438 C 544.164062 672.238281 539.738281 674.472656 535.253906 676.59375 C 530.769531 678.71875 526.238281 680.730469 521.65625 682.632812 C 517.078125 684.535156 512.453125 686.324219 507.78125 687.996094 C 503.113281 689.671875 498.40625 691.230469 493.660156 692.675781 C 488.914062 694.117188 484.136719 695.445312 479.328125 696.65625 C 474.515625 697.867188 469.679688 698.957031 464.816406 699.929688 C 459.949219 700.902344 455.066406 701.753906 450.160156 702.488281 C 445.253906 703.222656 440.332031 703.832031 435.398438 704.324219 C 430.460938 704.816406 425.515625 705.1875 420.5625 705.4375 C 415.609375 705.6875 410.652344 705.816406 405.691406 705.820312 Z M 405.691406 705.820312 " fill-opacity="1" fill-rule="nonzero"/><path fill="#f7a81b" d="M 405.691406 135.878906 C 401.324219 135.878906 396.960938 135.984375 392.601562 136.199219 C 388.238281 136.414062 383.886719 136.734375 379.542969 137.160156 C 375.195312 137.589844 370.863281 138.121094 366.546875 138.761719 C 362.226562 139.402344 357.925781 140.148438 353.644531 141 C 349.363281 141.851562 345.101562 142.804688 340.867188 143.867188 C 336.632812 144.925781 332.425781 146.089844 328.246094 147.355469 C 324.070312 148.625 319.925781 149.992188 315.8125 151.464844 C 311.703125 152.933594 307.628906 154.503906 303.59375 156.175781 C 299.5625 157.84375 295.570312 159.613281 291.625 161.480469 C 287.675781 163.34375 283.777344 165.308594 279.925781 167.363281 C 276.078125 169.421875 272.277344 171.574219 268.53125 173.816406 C 264.789062 176.0625 261.101562 178.398438 257.46875 180.820312 C 253.839844 183.246094 250.269531 185.761719 246.761719 188.359375 C 243.257812 190.960938 239.816406 193.644531 236.4375 196.414062 C 233.0625 199.183594 229.757812 202.035156 226.523438 204.96875 C 223.289062 207.898438 220.125 210.90625 217.039062 213.996094 C 213.953125 217.082031 210.941406 220.242188 208.007812 223.476562 C 205.078125 226.710938 202.226562 230.015625 199.457031 233.390625 C 196.683594 236.765625 194 240.207031 191.398438 243.714844 C 188.796875 247.21875 186.285156 250.789062 183.859375 254.417969 C 181.433594 258.046875 179.097656 261.734375 176.851562 265.480469 C 174.605469 269.226562 172.453125 273.023438 170.394531 276.871094 C 168.339844 280.722656 166.375 284.621094 164.507812 288.566406 C 162.640625 292.515625 160.871094 296.503906 159.199219 300.539062 C 157.53125 304.570312 155.957031 308.644531 154.488281 312.753906 C 153.015625 316.867188 151.648438 321.007812 150.378906 325.1875 C 149.113281 329.367188 147.949219 333.570312 146.886719 337.808594 C 145.824219 342.042969 144.867188 346.300781 144.015625 350.582031 C 143.164062 354.863281 142.417969 359.164062 141.777344 363.484375 C 141.136719 367.800781 140.601562 372.132812 140.171875 376.480469 C 139.746094 380.824219 139.425781 385.175781 139.210938 389.539062 C 138.996094 393.898438 138.886719 398.261719 138.886719 402.628906 C 138.886719 406.992188 138.996094 411.355469 139.207031 415.71875 C 139.421875 420.078125 139.742188 424.429688 140.171875 428.777344 C 140.597656 433.121094 141.132812 437.453125 141.773438 441.773438 C 142.414062 446.089844 143.160156 450.390625 144.011719 454.671875 C 144.863281 458.957031 145.820312 463.214844 146.878906 467.449219 C 147.941406 471.683594 149.105469 475.890625 150.371094 480.070312 C 151.640625 484.246094 153.007812 488.390625 154.480469 492.5 C 155.949219 496.613281 157.519531 500.683594 159.191406 504.71875 C 160.863281 508.753906 162.632812 512.742188 164.496094 516.6875 C 166.363281 520.636719 168.328125 524.535156 170.386719 528.386719 C 172.441406 532.234375 174.59375 536.035156 176.839844 539.777344 C 179.082031 543.523438 181.417969 547.210938 183.84375 550.839844 C 186.269531 554.472656 188.785156 558.039062 191.382812 561.546875 C 193.984375 565.054688 196.671875 568.492188 199.441406 571.867188 C 202.210938 575.242188 205.0625 578.550781 207.992188 581.785156 C 210.925781 585.019531 213.933594 588.179688 217.023438 591.265625 C 220.109375 594.355469 223.269531 597.363281 226.503906 600.296875 C 229.742188 603.226562 233.046875 606.078125 236.421875 608.847656 C 239.796875 611.617188 243.238281 614.304688 246.742188 616.90625 C 250.25 619.503906 253.820312 622.019531 257.449219 624.445312 C 261.078125 626.871094 264.765625 629.203125 268.511719 631.449219 C 272.257812 633.695312 276.054688 635.84375 279.90625 637.902344 C 283.757812 639.960938 287.65625 641.921875 291.601562 643.789062 C 295.546875 645.65625 299.539062 647.425781 303.574219 649.097656 C 307.605469 650.765625 311.679688 652.335938 315.789062 653.808594 C 319.902344 655.277344 324.046875 656.648438 328.222656 657.914062 C 332.402344 659.183594 336.609375 660.347656 340.84375 661.40625 C 345.078125 662.46875 349.335938 663.421875 353.621094 664.277344 C 357.902344 665.128906 362.203125 665.875 366.523438 666.511719 C 370.839844 667.152344 375.171875 667.6875 379.515625 668.117188 C 383.863281 668.542969 388.214844 668.863281 392.578125 669.078125 C 396.9375 669.292969 401.300781 669.398438 405.667969 669.398438 C 410.03125 669.398438 414.394531 669.292969 418.757812 669.078125 C 423.117188 668.863281 427.472656 668.542969 431.816406 668.113281 C 436.160156 667.683594 440.492188 667.152344 444.8125 666.511719 C 449.128906 665.871094 453.429688 665.121094 457.714844 664.269531 C 461.996094 663.417969 466.253906 662.460938 470.488281 661.402344 C 474.722656 660.339844 478.929688 659.175781 483.109375 657.90625 C 487.285156 656.640625 491.429688 655.269531 495.542969 653.800781 C 499.652344 652.328125 503.726562 650.757812 507.757812 649.085938 C 511.792969 647.414062 515.78125 645.648438 519.730469 643.78125 C 523.675781 641.914062 527.574219 639.949219 531.425781 637.890625 C 535.277344 635.832031 539.074219 633.679688 542.816406 631.4375 C 546.5625 629.191406 550.25 626.855469 553.878906 624.429688 C 557.511719 622.003906 561.078125 619.492188 564.585938 616.890625 C 568.09375 614.289062 571.53125 611.601562 574.90625 608.832031 C 578.28125 606.0625 581.585938 603.210938 584.820312 600.28125 C 588.058594 597.347656 591.21875 594.335938 594.304688 591.25 C 597.390625 588.164062 600.402344 585 603.332031 581.765625 C 606.265625 578.53125 609.113281 575.226562 611.882812 571.851562 C 614.652344 568.476562 617.339844 565.035156 619.941406 561.527344 C 622.539062 558.019531 625.054688 554.453125 627.476562 550.820312 C 629.902344 547.191406 632.238281 543.503906 634.484375 539.757812 C 636.726562 536.011719 638.878906 532.214844 640.933594 528.363281 C 642.992188 524.511719 644.957031 520.613281 646.820312 516.667969 C 648.6875 512.71875 650.457031 508.730469 652.125 504.695312 C 653.796875 500.664062 655.367188 496.589844 656.835938 492.480469 C 658.308594 488.367188 659.675781 484.222656 660.945312 480.046875 C 662.210938 475.867188 663.375 471.660156 664.433594 467.425781 C 665.496094 463.191406 666.449219 458.929688 667.300781 454.648438 C 668.152344 450.367188 668.898438 446.066406 669.539062 441.746094 C 670.179688 437.429688 670.714844 433.097656 671.140625 428.753906 C 671.566406 424.40625 671.886719 420.054688 672.101562 415.695312 C 672.316406 411.332031 672.421875 406.96875 672.421875 402.601562 C 672.417969 398.238281 672.304688 393.878906 672.089844 389.519531 C 671.871094 385.160156 671.546875 380.808594 671.113281 376.46875 C 670.683594 372.125 670.144531 367.796875 669.5 363.480469 C 668.859375 359.164062 668.109375 354.867188 667.253906 350.585938 C 666.398438 346.304688 665.441406 342.050781 664.378906 337.816406 C 663.316406 333.585938 662.148438 329.382812 660.878906 325.207031 C 659.609375 321.03125 658.238281 316.890625 656.765625 312.78125 C 655.292969 308.671875 653.722656 304.601562 652.050781 300.570312 C 650.378906 296.542969 648.609375 292.554688 646.742188 288.609375 C 644.871094 284.664062 642.910156 280.769531 640.851562 276.921875 C 638.792969 273.074219 636.640625 269.277344 634.398438 265.535156 C 632.152344 261.792969 629.816406 258.109375 627.390625 254.480469 C 624.964844 250.851562 622.453125 247.285156 619.851562 243.78125 C 617.253906 240.277344 614.566406 236.835938 611.796875 233.464844 C 609.03125 230.089844 606.179688 226.789062 603.25 223.554688 C 600.316406 220.320312 597.308594 217.160156 594.222656 214.074219 C 591.136719 210.988281 587.976562 207.980469 584.746094 205.050781 C 581.511719 202.121094 578.207031 199.269531 574.835938 196.5 C 571.460938 193.730469 568.023438 191.046875 564.519531 188.449219 C 561.011719 185.847656 557.445312 183.335938 553.820312 180.910156 C 550.191406 178.484375 546.503906 176.148438 542.761719 173.902344 C 539.019531 171.660156 535.226562 169.507812 531.375 167.449219 C 527.527344 165.390625 523.632812 163.425781 519.6875 161.558594 C 515.742188 159.691406 511.757812 157.921875 507.726562 156.25 C 503.695312 154.578125 499.625 153.007812 495.515625 151.535156 C 491.40625 150.0625 487.265625 148.691406 483.089844 147.421875 C 478.914062 146.152344 474.710938 144.988281 470.476562 143.921875 C 466.246094 142.859375 461.988281 141.902344 457.710938 141.046875 C 453.429688 140.191406 449.132812 139.445312 444.816406 138.800781 C 440.5 138.15625 436.171875 137.617188 431.828125 137.1875 C 427.484375 136.757812 423.132812 136.429688 418.773438 136.214844 C 414.417969 135.996094 410.054688 135.882812 405.691406 135.878906 Z M 439.136719 178.765625 C 439.835938 178.355469 440.570312 178.027344 441.34375 177.78125 C 442.117188 177.539062 442.910156 177.382812 443.71875 177.320312 C 444.527344 177.257812 445.332031 177.289062 446.136719 177.410156 C 446.9375 177.53125 447.714844 177.742188 448.46875 178.039062 C 502.070312 191.003906 541.398438 213.628906 579.820312 254.007812 C 580.988281 255.027344 581.9375 256.222656 582.664062 257.59375 C 583.390625 258.964844 583.847656 260.421875 584.03125 261.960938 L 584.03125 262.90625 C 583.234375 266.535156 579.128906 268.535156 575.460938 270.167969 L 463.25 324.636719 C 462.359375 325.160156 461.417969 325.566406 460.421875 325.847656 C 459.429688 326.128906 458.414062 326.28125 457.382812 326.304688 C 456.347656 326.324219 455.328125 326.21875 454.324219 325.976562 C 453.320312 325.738281 452.359375 325.378906 451.445312 324.890625 C 450.574219 324.335938 449.78125 323.679688 449.074219 322.921875 C 448.363281 322.167969 447.757812 321.335938 447.257812 320.429688 C 446.757812 319.523438 446.375 318.566406 446.113281 317.566406 C 445.851562 316.5625 445.714844 315.542969 445.710938 314.507812 L 436.667969 190.203125 C 436.304688 184.25 437.101562 180.582031 439.136719 178.765625 Z M 230.800781 255.023438 C 269.183594 214.714844 308.476562 191.949219 362.078125 179.09375 C 362.820312 178.789062 363.589844 178.578125 364.386719 178.457031 C 365.179688 178.335938 365.980469 178.308594 366.78125 178.371094 C 367.582031 178.4375 368.363281 178.597656 369.128906 178.847656 C 369.890625 179.097656 370.617188 179.433594 371.300781 179.855469 C 373.589844 181.597656 374.351562 185.265625 373.953125 191.222656 L 365.054688 315.449219 C 365.074219 316.484375 364.960938 317.507812 364.714844 318.511719 C 364.472656 319.515625 364.101562 320.476562 363.609375 321.386719 C 363.117188 322.296875 362.515625 323.128906 361.804688 323.882812 C 361.097656 324.636719 360.304688 325.289062 359.425781 325.835938 C 358.511719 326.320312 357.554688 326.683594 356.550781 326.921875 C 355.542969 327.160156 354.523438 327.269531 353.492188 327.246094 C 352.457031 327.226562 351.445312 327.074219 350.449219 326.789062 C 349.457031 326.507812 348.515625 326.105469 347.625 325.582031 L 235.484375 271.113281 C 231.851562 269.296875 227.53125 267.480469 226.804688 263.847656 C 226.789062 263 226.867188 262.160156 227.039062 261.332031 C 227.214844 260.5 227.480469 259.699219 227.835938 258.929688 C 228.191406 258.160156 228.628906 257.4375 229.144531 256.765625 C 229.664062 256.09375 230.253906 255.492188 230.910156 254.953125 Z M 204.179688 485.398438 C 199.316406 488.738281 195.71875 489.9375 192.960938 489.03125 C 190.199219 488.121094 188.894531 484.597656 187.914062 481.292969 C 172.042969 428.351562 172.042969 382.957031 187.730469 329.578125 C 189.074219 325 191 322.3125 193.433594 321.585938 C 197.0625 320.28125 200.695312 322.929688 204.328125 325.21875 L 307.386719 395.339844 C 308.285156 395.855469 309.101562 396.476562 309.84375 397.195312 C 310.582031 397.917969 311.222656 398.71875 311.761719 399.601562 C 312.300781 400.480469 312.722656 401.417969 313.027344 402.40625 C 313.332031 403.394531 313.511719 404.402344 313.5625 405.4375 C 313.492188 406.453125 313.300781 407.445312 312.996094 408.417969 C 312.691406 409.390625 312.277344 410.3125 311.753906 411.1875 C 311.230469 412.0625 310.609375 412.863281 309.898438 413.589844 C 309.183594 414.320312 308.394531 414.953125 307.53125 415.496094 Z M 373.40625 631.378906 C 372.703125 631.777344 371.960938 632.09375 371.183594 632.320312 C 370.402344 632.550781 369.609375 632.683594 368.800781 632.730469 C 367.992188 632.773438 367.1875 632.722656 366.386719 632.582031 C 365.589844 632.441406 364.820312 632.207031 364.074219 631.886719 C 310.511719 619.105469 271.109375 596.445312 232.796875 556.027344 C 231.640625 555.046875 230.707031 553.890625 229.992188 552.554688 C 229.277344 551.21875 228.832031 549.796875 228.65625 548.292969 C 228.605469 547.917969 228.605469 547.542969 228.65625 547.167969 C 229.164062 543.535156 233.488281 541.574219 237.117188 539.90625 L 349.332031 485.433594 C 350.210938 484.878906 351.148438 484.449219 352.148438 484.152344 C 353.144531 483.851562 354.164062 483.691406 355.203125 483.667969 C 356.246094 483.648438 357.269531 483.765625 358.277344 484.023438 C 359.289062 484.285156 360.242188 484.671875 361.144531 485.191406 C 362.046875 485.710938 362.863281 486.34375 363.59375 487.085938 C 364.324219 487.828125 364.941406 488.652344 365.445312 489.5625 C 365.949219 490.476562 366.324219 491.4375 366.566406 492.449219 C 366.808594 493.460938 366.910156 494.488281 366.871094 495.53125 L 375.949219 620.085938 C 376.53125 625.859375 375.660156 629.492188 373.515625 631.378906 Z M 405.363281 476.101562 C 403.421875 476.097656 401.484375 476.015625 399.550781 475.851562 C 397.617188 475.691406 395.691406 475.457031 393.777344 475.140625 C 391.859375 474.828125 389.960938 474.4375 388.074219 473.972656 C 386.191406 473.507812 384.328125 472.964844 382.488281 472.351562 C 380.648438 471.738281 378.832031 471.050781 377.046875 470.289062 C 375.261719 469.53125 373.507812 468.699219 371.789062 467.800781 C 370.066406 466.902344 368.386719 465.933594 366.742188 464.902344 C 365.101562 463.867188 363.5 462.769531 361.945312 461.605469 C 360.390625 460.445312 358.886719 459.222656 357.429688 457.941406 C 355.96875 456.660156 354.566406 455.320312 353.214844 453.925781 C 351.867188 452.53125 350.574219 451.085938 349.339844 449.589844 C 348.101562 448.09375 346.929688 446.546875 345.820312 444.957031 C 344.707031 443.363281 343.660156 441.730469 342.679688 440.058594 C 341.699219 438.382812 340.785156 436.671875 339.941406 434.921875 C 339.097656 433.175781 338.324219 431.398438 337.621094 429.585938 C 336.917969 427.777344 336.289062 425.941406 335.734375 424.082031 C 335.179688 422.222656 334.699219 420.34375 334.292969 418.445312 C 333.886719 416.546875 333.558594 414.636719 333.304688 412.710938 C 333.050781 410.789062 332.878906 408.855469 332.777344 406.917969 C 332.679688 404.980469 332.660156 403.039062 332.714844 401.097656 C 332.773438 399.160156 332.90625 397.222656 333.117188 395.292969 C 333.328125 393.367188 333.617188 391.449219 333.980469 389.539062 C 334.34375 387.632812 334.785156 385.746094 335.300781 383.875 C 335.816406 382.003906 336.402344 380.15625 337.066406 378.332031 C 337.730469 376.507812 338.464844 374.710938 339.269531 372.945312 C 340.078125 371.179688 340.953125 369.449219 341.898438 367.753906 C 342.839844 366.058594 343.851562 364.402344 344.929688 362.789062 C 346.007812 361.171875 347.144531 359.601562 348.347656 358.078125 C 349.550781 356.554688 350.8125 355.082031 352.132812 353.660156 C 353.453125 352.234375 354.824219 350.867188 356.253906 349.554688 C 357.683594 348.242188 359.164062 346.988281 360.695312 345.792969 C 362.222656 344.597656 363.796875 343.464844 365.417969 342.394531 C 366.222656 341.863281 367.074219 341.414062 367.96875 341.046875 C 368.863281 340.683594 369.785156 340.40625 370.734375 340.222656 C 371.679688 340.039062 372.640625 339.949219 373.605469 339.953125 C 374.570312 339.960938 375.527344 340.058594 376.472656 340.25 C 377.421875 340.445312 378.339844 340.726562 379.230469 341.101562 C 380.121094 341.476562 380.96875 341.933594 381.769531 342.472656 C 382.570312 343.015625 383.308594 343.628906 383.988281 344.316406 C 384.667969 345 385.277344 345.746094 385.808594 346.554688 C 386.339844 347.359375 386.789062 348.210938 387.15625 349.105469 C 387.523438 350 387.796875 350.917969 387.980469 351.867188 C 388.164062 352.816406 388.253906 353.773438 388.25 354.738281 C 388.246094 355.707031 388.144531 356.664062 387.953125 357.609375 C 387.757812 358.554688 387.476562 359.476562 387.101562 360.367188 C 386.726562 361.257812 386.269531 362.101562 385.730469 362.902344 C 385.1875 363.703125 384.574219 364.445312 383.890625 365.125 C 383.203125 365.804688 382.457031 366.410156 381.652344 366.945312 C 381.003906 367.367188 380.363281 367.808594 379.738281 368.269531 C 379.113281 368.726562 378.503906 369.203125 377.902344 369.695312 C 377.304688 370.1875 376.71875 370.691406 376.144531 371.214844 C 375.570312 371.738281 375.011719 372.277344 374.46875 372.828125 C 373.925781 373.382812 373.398438 373.949219 372.882812 374.53125 C 372.371094 375.109375 371.871094 375.703125 371.390625 376.3125 C 370.90625 376.917969 370.441406 377.539062 369.992188 378.171875 C 369.542969 378.804688 369.113281 379.449219 368.699219 380.101562 C 368.285156 380.757812 367.886719 381.425781 367.507812 382.101562 C 367.128906 382.777344 366.769531 383.464844 366.425781 384.160156 C 366.085938 384.855469 365.761719 385.558594 365.457031 386.273438 C 365.152344 386.984375 364.867188 387.707031 364.597656 388.433594 C 364.332031 389.164062 364.085938 389.898438 363.859375 390.636719 C 363.632812 391.378906 363.425781 392.125 363.238281 392.878906 C 363.050781 393.632812 362.882812 394.390625 362.738281 395.148438 C 362.589844 395.910156 362.464844 396.675781 362.359375 397.445312 C 362.253906 398.210938 362.167969 398.984375 362.101562 399.753906 C 362.039062 400.527344 361.992188 401.300781 361.96875 402.078125 C 361.945312 402.851562 361.945312 403.628906 361.960938 404.402344 C 361.980469 405.175781 362.019531 405.953125 362.078125 406.726562 C 362.136719 407.5 362.214844 408.269531 362.316406 409.039062 C 362.417969 409.808594 362.539062 410.574219 362.679688 411.335938 C 362.820312 412.097656 362.980469 412.855469 363.164062 413.609375 C 363.34375 414.363281 363.546875 415.113281 363.769531 415.855469 C 363.992188 416.597656 364.230469 417.335938 364.492188 418.0625 C 364.753906 418.792969 365.035156 419.515625 365.335938 420.230469 C 365.632812 420.949219 365.953125 421.652344 366.289062 422.351562 C 366.625 423.050781 366.980469 423.738281 367.355469 424.417969 C 367.730469 425.097656 368.121094 425.765625 368.53125 426.425781 C 368.941406 427.082031 369.367188 427.730469 369.8125 428.367188 C 370.257812 429 370.71875 429.625 371.195312 430.234375 C 371.671875 430.847656 372.167969 431.445312 372.675781 432.027344 C 373.1875 432.613281 373.710938 433.183594 374.25 433.738281 C 374.789062 434.296875 375.34375 434.835938 375.914062 435.363281 C 376.484375 435.890625 377.066406 436.402344 377.660156 436.898438 C 378.257812 437.394531 378.867188 437.875 379.488281 438.335938 C 380.109375 438.800781 380.742188 439.246094 381.390625 439.675781 C 382.035156 440.105469 382.691406 440.519531 383.359375 440.914062 C 384.027344 441.308594 384.703125 441.683594 385.390625 442.042969 C 386.078125 442.398438 386.777344 442.738281 387.480469 443.0625 C 388.1875 443.382812 388.902344 443.683594 389.625 443.96875 C 390.347656 444.25 391.074219 444.511719 391.8125 444.757812 C 392.546875 445 393.289062 445.226562 394.035156 445.429688 C 394.785156 445.636719 395.539062 445.820312 396.296875 445.984375 C 397.054688 446.148438 397.816406 446.292969 398.582031 446.414062 C 399.347656 446.539062 400.113281 446.640625 400.886719 446.726562 C 401.65625 446.808594 402.429688 446.871094 403.203125 446.910156 C 403.976562 446.953125 404.753906 446.972656 405.527344 446.972656 C 406.304688 446.972656 407.078125 446.953125 407.851562 446.910156 C 408.625 446.871094 409.398438 446.808594 410.171875 446.726562 C 410.941406 446.640625 411.710938 446.539062 412.476562 446.414062 C 413.242188 446.292969 414.003906 446.148438 414.761719 445.984375 C 415.519531 445.820312 416.269531 445.636719 417.019531 445.429688 C 417.765625 445.226562 418.507812 445 419.246094 444.757812 C 419.980469 444.511719 420.710938 444.25 421.429688 443.96875 C 422.152344 443.683594 422.867188 443.382812 423.574219 443.0625 C 424.277344 442.738281 424.976562 442.398438 425.664062 442.042969 C 426.351562 441.683594 427.027344 441.308594 427.695312 440.914062 C 428.363281 440.519531 429.019531 440.105469 429.664062 439.675781 C 430.3125 439.246094 430.945312 438.800781 431.566406 438.335938 C 432.1875 437.875 432.796875 437.394531 433.394531 436.898438 C 433.988281 436.402344 434.574219 435.890625 435.140625 435.363281 C 435.710938 434.835938 436.265625 434.296875 436.804688 433.738281 C 437.34375 433.183594 437.871094 432.613281 438.378906 432.027344 C 438.886719 431.445312 439.382812 430.847656 439.859375 430.234375 C 440.335938 429.625 440.796875 429 441.242188 428.367188 C 441.6875 427.730469 442.113281 427.082031 442.523438 426.425781 C 442.933594 425.765625 443.324219 425.097656 443.699219 424.417969 C 444.074219 423.738281 444.429688 423.050781 444.765625 422.351562 C 445.101562 421.652344 445.421875 420.949219 445.722656 420.230469 C 446.019531 419.515625 446.300781 418.792969 446.5625 418.0625 C 446.824219 417.335938 447.066406 416.597656 447.285156 415.855469 C 447.507812 415.113281 447.710938 414.363281 447.890625 413.609375 C 448.074219 412.855469 448.234375 412.097656 448.375 411.335938 C 448.515625 410.574219 448.636719 409.808594 448.738281 409.039062 C 448.839844 408.269531 448.917969 407.5 448.976562 406.726562 C 449.035156 405.953125 449.074219 405.175781 449.09375 404.402344 C 449.113281 403.628906 449.109375 402.851562 449.085938 402.078125 C 449.0625 401.300781 449.015625 400.527344 448.953125 399.753906 C 448.886719 398.984375 448.800781 398.210938 448.695312 397.445312 C 448.589844 396.675781 448.464844 395.910156 448.316406 395.148438 C 448.171875 394.390625 448.003906 393.632812 447.816406 392.878906 C 447.628906 392.125 447.421875 391.378906 447.195312 390.636719 C 446.96875 389.898438 446.722656 389.164062 446.457031 388.433594 C 446.1875 387.707031 445.902344 386.984375 445.597656 386.273438 C 445.292969 385.558594 444.972656 384.855469 444.628906 384.160156 C 444.285156 383.464844 443.925781 382.777344 443.546875 382.101562 C 443.167969 381.425781 442.769531 380.757812 442.355469 380.101562 C 441.941406 379.449219 441.511719 378.804688 441.0625 378.171875 C 440.613281 377.539062 440.148438 376.917969 439.664062 376.3125 C 439.183594 375.703125 438.6875 375.109375 438.171875 374.53125 C 437.660156 373.949219 437.128906 373.382812 436.585938 372.828125 C 436.042969 372.277344 435.484375 371.738281 434.910156 371.214844 C 434.339844 370.691406 433.75 370.1875 433.152344 369.695312 C 432.550781 369.203125 431.941406 368.726562 431.316406 368.269531 C 430.691406 367.808594 430.054688 367.367188 429.40625 366.945312 C 428.597656 366.410156 427.851562 365.804688 427.164062 365.125 C 426.480469 364.445312 425.867188 363.703125 425.324219 362.902344 C 424.785156 362.101562 424.328125 361.257812 423.953125 360.367188 C 423.578125 359.476562 423.296875 358.554688 423.101562 357.609375 C 422.910156 356.664062 422.808594 355.707031 422.804688 354.738281 C 422.800781 353.773438 422.890625 352.816406 423.074219 351.867188 C 423.257812 350.917969 423.53125 350 423.898438 349.105469 C 424.265625 348.210938 424.714844 347.359375 425.246094 346.554688 C 425.777344 345.746094 426.386719 345 427.066406 344.316406 C 427.746094 343.628906 428.484375 343.015625 429.285156 342.472656 C 430.085938 341.933594 430.933594 341.476562 431.824219 341.101562 C 432.714844 340.726562 433.632812 340.445312 434.582031 340.25 C 435.527344 340.058594 436.484375 339.960938 437.449219 339.953125 C 438.414062 339.949219 439.375 340.039062 440.320312 340.222656 C 441.269531 340.40625 442.191406 340.683594 443.085938 341.046875 C 443.980469 341.414062 444.832031 341.863281 445.636719 342.394531 C 447.257812 343.464844 448.835938 344.59375 450.367188 345.789062 C 451.898438 346.984375 453.378906 348.238281 454.8125 349.550781 C 456.242188 350.863281 457.621094 352.230469 458.941406 353.65625 C 460.261719 355.078125 461.527344 356.550781 462.730469 358.074219 C 463.933594 359.601562 465.074219 361.167969 466.152344 362.785156 C 467.234375 364.398438 468.246094 366.054688 469.191406 367.753906 C 470.136719 369.449219 471.015625 371.179688 471.824219 372.945312 C 472.628906 374.710938 473.367188 376.507812 474.03125 378.332031 C 474.695312 380.160156 475.285156 382.007812 475.800781 383.878906 C 476.316406 385.753906 476.757812 387.640625 477.125 389.550781 C 477.488281 391.457031 477.777344 393.375 477.988281 395.308594 C 478.203125 397.238281 478.335938 399.175781 478.394531 401.117188 C 478.449219 403.058594 478.429688 404.996094 478.332031 406.9375 C 478.234375 408.878906 478.058594 410.808594 477.804688 412.734375 C 477.554688 414.660156 477.222656 416.574219 476.820312 418.472656 C 476.414062 420.371094 475.933594 422.253906 475.375 424.113281 C 474.820312 425.976562 474.191406 427.8125 473.488281 429.621094 C 472.785156 431.433594 472.011719 433.210938 471.167969 434.960938 C 470.324219 436.710938 469.410156 438.421875 468.425781 440.097656 C 467.445312 441.773438 466.398438 443.410156 465.285156 445 C 464.171875 446.59375 463 448.136719 461.761719 449.636719 C 460.527344 451.132812 459.234375 452.582031 457.882812 453.976562 C 456.53125 455.371094 455.125 456.710938 453.667969 457.992188 C 452.207031 459.273438 450.699219 460.496094 449.144531 461.660156 C 447.585938 462.820312 445.988281 463.917969 444.34375 464.953125 C 442.699219 465.984375 441.015625 466.953125 439.292969 467.851562 C 437.574219 468.75 435.816406 469.582031 434.03125 470.339844 C 432.242188 471.097656 430.425781 471.785156 428.585938 472.398438 C 426.742188 473.015625 424.878906 473.554688 422.992188 474.019531 C 421.105469 474.484375 419.203125 474.871094 417.289062 475.1875 C 415.371094 475.5 413.445312 475.734375 411.507812 475.894531 C 409.574219 476.054688 407.632812 476.132812 405.691406 476.136719 Z M 579.964844 554.574219 C 541.726562 594.8125 502.578125 617.472656 448.6875 630.398438 C 447.90625 630.707031 447.097656 630.921875 446.265625 631.042969 C 445.433594 631.164062 444.597656 631.1875 443.757812 631.113281 C 442.921875 631.042969 442.101562 630.875 441.304688 630.613281 C 440.503906 630.351562 439.746094 630 439.027344 629.5625 C 436.195312 627.203125 436.558594 622.300781 436.847656 618.378906 L 445.78125 494.003906 C 445.820312 492.957031 445.980469 491.925781 446.261719 490.917969 C 446.542969 489.90625 446.941406 488.945312 447.453125 488.027344 C 447.964844 487.113281 448.574219 486.269531 449.289062 485.5 C 450 484.730469 450.792969 484.054688 451.664062 483.472656 C 452.585938 483.039062 453.542969 482.714844 454.539062 482.507812 C 455.53125 482.300781 456.539062 482.210938 457.554688 482.242188 C 458.574219 482.273438 459.570312 482.425781 460.550781 482.695312 C 461.53125 482.964844 462.46875 483.34375 463.359375 483.835938 L 575.605469 538.308594 C 580.871094 540.886719 583.667969 543.425781 584.214844 546.222656 C 584.757812 549.019531 582.578125 551.925781 580.074219 554.503906 Z M 617.804688 320.933594 C 620.820312 321.949219 622.015625 325.292969 622.925781 328.597656 C 638.722656 381.578125 638.722656 426.933594 622.925781 480.351562 C 621.652344 484.925781 619.800781 487.613281 617.367188 488.449219 C 613.738281 489.539062 610.105469 486.996094 606.765625 484.597656 L 503.558594 414.585938 C 502.65625 414.070312 501.832031 413.449219 501.082031 412.726562 C 500.335938 412 499.6875 411.199219 499.140625 410.3125 C 498.589844 409.429688 498.160156 408.492188 497.84375 407.5 C 497.527344 406.507812 497.339844 405.492188 497.277344 404.457031 C 497.34375 403.417969 497.539062 402.40625 497.855469 401.417969 C 498.175781 400.425781 498.609375 399.492188 499.15625 398.605469 C 499.703125 397.722656 500.347656 396.921875 501.09375 396.195312 C 501.839844 395.472656 502.660156 394.847656 503.558594 394.324219 L 606.765625 324.347656 C 611.523438 320.933594 615.191406 319.882812 617.914062 320.863281 Z M 617.804688 320.933594 " fill-opacity="1" fill-rule="nonzero"/></svg>